<svg width="810" height="240" viewBox="0 0 810 240" fill="none" xmlns="http://www.w3.org/2000/svg">
<rect width="810" height="240" fill="#E5E5E5"/>
<rect width="810" height="240" fill="white"/>
<path d="M253.89 176.85C244.073 176.85 235.207 175.172 227.29 171.815C219.437 168.395 212.945 163.55 207.815 157.28C202.748 150.947 199.455 143.442 197.935 134.765L218.645 131.63C220.735 139.99 225.105 146.513 231.755 151.2C238.405 155.823 246.163 158.135 255.03 158.135C260.54 158.135 265.607 157.28 270.23 155.57C274.853 153.797 278.558 151.295 281.345 148.065C284.195 144.772 285.62 140.845 285.62 136.285C285.62 133.815 285.177 131.63 284.29 129.73C283.467 127.83 282.295 126.183 280.775 124.79C279.318 123.333 277.513 122.098 275.36 121.085C273.27 120.008 270.958 119.09 268.425 118.33L233.37 107.975C229.95 106.962 226.467 105.663 222.92 104.08C219.373 102.433 216.112 100.312 213.135 97.715C210.222 95.055 207.847 91.7933 206.01 87.93C204.173 84.0033 203.255 79.2533 203.255 73.68C203.255 65.2567 205.408 58.1317 209.715 52.305C214.085 46.415 219.975 41.9817 227.385 39.005C234.795 35.965 243.092 34.445 252.275 34.445C261.522 34.5717 269.787 36.2183 277.07 39.385C284.417 42.5517 290.497 47.1117 295.31 53.065C300.187 58.955 303.543 66.1117 305.38 74.535L284.1 78.145C283.15 73.015 281.123 68.6133 278.02 64.94C274.917 61.2033 271.117 58.3533 266.62 56.39C262.123 54.3633 257.247 53.3183 251.99 53.255C246.923 53.1283 242.268 53.8883 238.025 55.535C233.845 57.1817 230.488 59.4933 227.955 62.47C225.485 65.4467 224.25 68.8667 224.25 72.73C224.25 76.53 225.358 79.6017 227.575 81.945C229.792 84.2883 232.515 86.1567 235.745 87.55C239.038 88.88 242.3 89.9883 245.53 90.875L270.8 98C273.967 98.8867 277.545 100.09 281.535 101.61C285.588 103.067 289.483 105.125 293.22 107.785C297.02 110.445 300.155 113.992 302.625 118.425C305.095 122.795 306.33 128.305 306.33 134.955C306.33 141.858 304.937 147.938 302.15 153.195C299.363 158.388 295.532 162.758 290.655 166.305C285.842 169.788 280.268 172.417 273.935 174.19C267.602 175.963 260.92 176.85 253.89 176.85ZM328.475 54.585V35.3H348.33V54.585H328.475ZM328.475 174V71.4H348.33V174H328.475Z" fill="#000AFF" fill-opacity="0.68"/>
<path d="M378.759 174V37.2H398.614V155.285H460.554V174H378.759ZM505.658 176.85C498.058 176.85 491.693 175.457 486.563 172.67C481.433 169.82 477.538 166.083 474.878 161.46C472.281 156.773 470.983 151.643 470.983 146.07C470.983 140.877 471.901 136.317 473.738 132.39C475.574 128.463 478.298 125.138 481.908 122.415C485.518 119.628 489.951 117.38 495.208 115.67C499.768 114.34 504.929 113.168 510.693 112.155C516.456 111.142 522.504 110.192 528.838 109.305C535.234 108.418 541.568 107.532 547.838 106.645L540.618 110.635C540.744 102.592 539.034 96.6383 535.488 92.775C532.004 88.8483 525.988 86.885 517.438 86.885C512.054 86.885 507.114 88.1517 502.618 90.685C498.121 93.155 494.986 97.2717 493.213 103.035L474.688 97.335C477.221 88.5317 482.034 81.5333 489.128 76.34C496.284 71.1467 505.784 68.55 517.628 68.55C526.811 68.55 534.791 70.1333 541.568 73.3C548.408 76.4033 553.411 81.3433 556.578 88.12C558.224 91.4767 559.238 95.0233 559.618 98.76C559.998 102.497 560.188 106.518 560.188 110.825V174H542.613V150.535L546.033 153.575C541.789 161.428 536.374 167.287 529.788 171.15C523.264 174.95 515.221 176.85 505.658 176.85ZM509.173 160.605C514.809 160.605 519.654 159.623 523.708 157.66C527.761 155.633 531.023 153.068 533.493 149.965C535.963 146.862 537.578 143.632 538.338 140.275C539.414 137.235 540.016 133.815 540.143 130.015C540.333 126.215 540.428 123.175 540.428 120.895L546.888 123.27C540.618 124.22 534.918 125.075 529.788 125.835C524.658 126.595 520.003 127.355 515.823 128.115C511.706 128.812 508.033 129.667 504.803 130.68C502.079 131.63 499.641 132.77 497.488 134.1C495.398 135.43 493.719 137.045 492.453 138.945C491.249 140.845 490.648 143.157 490.648 145.88C490.648 148.54 491.313 151.01 492.643 153.29C493.973 155.507 495.999 157.28 498.723 158.61C501.446 159.94 504.929 160.605 509.173 160.605ZM656.867 174V123.555C656.867 119.565 656.518 115.48 655.822 111.3C655.188 107.057 653.922 103.13 652.022 99.52C650.185 95.91 647.557 92.9967 644.137 90.78C640.78 88.5633 636.378 87.455 630.932 87.455C627.385 87.455 624.028 88.0567 620.862 89.26C617.695 90.4 614.908 92.2683 612.502 94.865C610.158 97.4617 608.29 100.882 606.897 105.125C605.567 109.368 604.902 114.53 604.902 120.61L592.552 115.955C592.552 106.645 594.293 98.4433 597.777 91.35C601.26 84.1933 606.263 78.62 612.787 74.63C619.31 70.64 627.195 68.645 636.442 68.645C643.535 68.645 649.488 69.785 654.302 72.065C659.115 74.345 663.01 77.3533 665.987 81.09C669.027 84.7633 671.338 88.785 672.922 93.155C674.505 97.525 675.582 101.8 676.152 105.98C676.722 110.16 677.007 113.833 677.007 117V174H656.867ZM584.762 174V71.4H602.527V101.04H604.902V174H584.762ZM744.026 222.45C738.516 222.45 733.165 221.595 727.971 219.885C722.841 218.175 718.155 215.642 713.911 212.285C709.668 208.992 706.153 204.907 703.366 200.03L721.701 190.72C723.918 195.09 727.085 198.288 731.201 200.315C735.318 202.342 739.656 203.355 744.216 203.355C749.853 203.355 754.666 202.342 758.656 200.315C762.646 198.352 765.655 195.375 767.681 191.385C769.771 187.395 770.785 182.455 770.721 176.565V147.875H773.096V71.4H790.671V176.755C790.671 179.478 790.576 182.075 790.386 184.545C790.196 187.015 789.848 189.485 789.341 191.955C787.885 198.858 785.098 204.558 780.981 209.055C776.928 213.552 771.735 216.908 765.401 219.125C759.131 221.342 752.006 222.45 744.026 222.45ZM742.506 176.85C732.943 176.85 724.678 174.475 717.711 169.725C710.808 164.975 705.456 158.515 701.656 150.345C697.92 142.112 696.051 132.865 696.051 122.605C696.051 112.282 697.951 103.067 701.751 94.96C705.551 86.79 710.935 80.3617 717.901 75.675C724.931 70.925 733.26 68.55 742.886 68.55C752.576 68.55 760.715 70.925 767.301 75.675C773.951 80.3617 778.955 86.79 782.311 94.96C785.731 103.13 787.441 112.345 787.441 122.605C787.441 132.865 785.731 142.08 782.311 150.25C778.891 158.42 773.856 164.912 767.206 169.725C760.556 174.475 752.323 176.85 742.506 176.85ZM745.261 158.895C751.785 158.895 757.105 157.343 761.221 154.24C765.338 151.137 768.346 146.862 770.246 141.415C772.146 135.968 773.096 129.698 773.096 122.605C773.096 115.512 772.115 109.242 770.151 103.795C768.251 98.3483 765.275 94.105 761.221 91.065C757.231 88.025 752.133 86.505 745.926 86.505C739.34 86.505 733.925 88.12 729.681 91.35C725.438 94.58 722.271 98.9183 720.181 104.365C718.155 109.812 717.141 115.892 717.141 122.605C717.141 129.382 718.155 135.525 720.181 141.035C722.271 146.482 725.375 150.82 729.491 154.05C733.671 157.28 738.928 158.895 745.261 158.895Z" fill="#373333"/>
<path fill-rule="evenodd" clip-rule="evenodd" d="M37 34.5938C36.2233 34.5938 35.5938 35.2233 35.5938 36C35.5938 36.7767 36.2233 37.4062 37 37.4062H55.902L59.6357 52.3411L75.1989 114.594H73C65.5959 114.594 59.5938 120.596 59.5938 128C59.5938 135.404 65.5959 141.406 73 141.406H165C165.777 141.406 166.406 140.777 166.406 140C166.406 139.223 165.777 138.594 165 138.594H73C67.1492 138.594 62.4062 133.851 62.4062 128C62.4062 122.149 67.1492 117.406 73 117.406H77H165C165.645 117.406 166.208 116.967 166.364 116.341L182.364 52.3411C182.469 51.921 182.375 51.4759 182.108 51.1346C181.842 50.7933 181.433 50.5938 181 50.5938H62.098L58.3643 35.6589C58.2078 35.0329 57.6453 34.5938 57 34.5938H37ZM77 162.594C71.8051 162.594 67.5938 166.805 67.5938 172C67.5938 177.195 71.8051 181.406 77 181.406C82.1949 181.406 86.4062 177.195 86.4062 172C86.4062 166.805 82.1949 162.594 77 162.594ZM157 162.594C151.805 162.594 147.594 166.805 147.594 172C147.594 177.195 151.805 181.406 157 181.406C162.195 181.406 166.406 177.195 166.406 172C166.406 166.805 162.195 162.594 157 162.594Z" fill="#333333"/>
</svg>
