<?xml version="1.0" standalone="no"?>
<!DOCTYPE svg PUBLIC "-//W3C//DTD SVG 20010904//EN"
 "http://www.w3.org/TR/2001/REC-SVG-20010904/DTD/svg10.dtd">
<svg version="1.0" xmlns="http://www.w3.org/2000/svg"
 width="865.000000pt" height="301.000000pt" viewBox="0 0 865.000000 301.000000"
 preserveAspectRatio="xMidYMid meet">

<g transform="translate(0.000000,301.000000) scale(0.100000,-0.100000)"
fill="#000000" stroke="none">
<path d="M3153 2630 c-15 -16 -35 -30 -44 -30 -32 0 -67 -39 -79 -88 -6 -27
-10 -53 -8 -58 1 -5 -5 -20 -14 -33 l-17 -25 -26 28 c-14 15 -55 41 -93 59
-58 28 -78 32 -147 32 -64 0 -89 -5 -123 -22 -23 -13 -52 -23 -63 -23 -35 0
-154 -67 -191 -108 -49 -54 -59 -75 -74 -152 -6 -36 -20 -85 -30 -110 -23 -60
-25 -222 -2 -265 8 -16 18 -50 22 -75 6 -43 5 -45 -19 -46 -63 -4 -94 -61
-124 -225 -5 -31 -21 -73 -36 -94 -22 -33 -25 -49 -25 -114 0 -42 -1 -94 -1
-116 -2 -56 14 -144 34 -181 19 -37 94 -104 115 -104 8 0 32 -15 52 -34 36
-32 100 -54 165 -57 112 -4 206 6 281 31 78 25 74 25 74 -6 0 -37 50 -84 90
-84 51 0 85 32 114 108 15 38 40 81 56 97 16 15 32 42 36 59 3 17 17 49 30 71
24 43 41 104 74 280 11 61 27 130 34 155 8 25 19 83 26 130 7 47 17 90 22 97
6 7 12 41 15 75 3 35 21 108 40 163 l35 100 -7 175 c-4 96 -9 201 -11 232 -7
129 -42 188 -113 188 -31 0 -45 -6 -68 -30z m-40 -122 c-2 -5 -11 -8 -19 -8
-17 0 -18 22 -2 38 10 10 14 9 19 -5 4 -10 5 -21 2 -25z m117 32 c0 -5 -4 -10
-10 -10 -5 0 -10 5 -10 10 0 6 5 10 10 10 6 0 10 -4 10 -10z m-76 -57 c9 -22
-10 -41 -25 -26 -13 13 -5 43 10 43 5 0 12 -8 15 -17z m96 -194 l12 -186 -35
-104 c-19 -57 -38 -127 -41 -156 -3 -29 -12 -63 -21 -76 -8 -13 -15 -34 -14
-48 2 -41 -12 -142 -27 -189 -19 -63 -55 -221 -56 -245 -1 -54 -22 -134 -44
-166 -14 -20 -30 -54 -36 -75 -9 -33 -12 -36 -21 -23 -9 14 -16 2 -43 -65 -17
-44 -34 -90 -38 -100 -4 -10 -9 -16 -12 -13 -3 3 4 44 16 91 12 50 23 130 25
191 2 58 7 110 10 114 3 5 0 11 -6 13 -7 2 -4 45 10 133 11 72 20 146 20 165
-1 19 2 73 5 120 11 131 9 224 -3 228 -6 2 -11 14 -11 27 0 18 4 22 18 18 15
-3 22 5 35 39 19 48 23 143 7 133 -5 -3 -10 -22 -10 -42 0 -37 -23 -73 -46
-73 -7 0 -18 -8 -23 -17 -6 -10 -11 -12 -11 -5 0 27 -19 10 -26 -23 -14 -75
-32 -34 -25 57 1 15 -13 59 -31 97 -31 66 -35 71 -66 71 -73 0 -161 -63 -184
-133 -8 -23 -13 -65 -12 -92 2 -52 36 -146 60 -166 8 -6 14 -19 14 -28 0 -9
19 -35 43 -57 51 -48 149 -207 178 -289 30 -86 37 -220 14 -266 -10 -18 -26
-39 -35 -46 -9 -7 -27 -34 -38 -61 -12 -26 -33 -60 -47 -74 -30 -30 -108 -58
-163 -58 -21 0 -53 -5 -71 -11 -24 -8 -35 -8 -46 1 -9 8 -27 10 -46 6 -45 -9
-110 11 -116 35 -6 22 -51 49 -82 49 -31 0 -68 58 -75 118 -5 37 -3 52 5 52
12 0 8 89 -7 150 -5 24 -5 24 10 6 12 -15 16 -16 16 -5 1 8 7 3 14 -10 12 -21
13 -15 13 60 -1 86 28 239 44 239 11 0 12 7 -7 -91 -9 -46 -14 -104 -12 -129
7 -66 53 -163 89 -184 16 -9 29 -21 29 -27 0 -5 7 -9 15 -9 8 0 15 -6 15 -13
0 -8 11 -19 25 -25 36 -16 53 -15 29 2 -26 19 -12 31 18 15 12 -7 56 -13 96
-13 70 -1 75 0 98 29 22 27 24 38 23 125 -1 95 -2 95 -46 163 -45 66 -68 82
-80 51 -3 -8 -12 -13 -19 -10 -10 4 -14 -3 -14 -22 0 -40 -16 -60 -23 -30 -4
12 -7 33 -7 46 0 12 -7 34 -16 47 -9 13 -13 33 -10 43 4 11 -2 29 -14 45 -11
14 -27 47 -35 72 -7 26 -22 56 -31 66 -10 11 -19 32 -20 47 -1 15 -10 45 -20
67 -25 58 -21 148 10 239 14 41 26 86 26 101 0 38 53 101 108 127 26 12 51 24
56 26 5 3 6 -3 3 -12 -10 -25 9 -19 58 19 53 40 95 50 170 41 61 -7 115 -39
183 -108 36 -38 44 -52 49 -99 7 -54 7 -54 15 -19 4 19 5 47 2 61 -3 19 3 35
23 59 15 18 41 48 57 66 17 21 37 34 52 34 13 0 24 5 24 11 0 6 7 9 15 5 10
-3 15 1 15 11 0 15 30 57 36 50 1 -1 8 -86 14 -188z m-502 -246 c5 -10 12 -60
16 -111 4 -51 11 -103 16 -116 9 -25 51 -71 70 -78 7 -2 10 -23 8 -53 l-3 -50
-29 49 c-15 27 -43 65 -60 85 -59 67 -99 140 -104 191 -4 43 -1 52 23 74 33
30 51 33 63 9z m142 -183 c0 -5 -4 -10 -10 -10 -5 0 -10 5 -10 10 0 6 5 10 10
10 6 0 10 -4 10 -10z m-34 -60 c8 0 14 -7 14 -15 0 -22 -24 -18 -46 7 -18 20
-18 21 -1 15 10 -4 25 -7 33 -7z m-461 -399 c8 -35 24 -81 35 -103 23 -45 11
-50 -44 -17 -50 29 -70 93 -56 174 6 33 13 67 16 75 7 19 30 -41 49 -129z
m199 43 c8 -22 8 -24 -8 -24 -18 0 -29 16 -21 30 9 15 22 12 29 -6z m-64 -84
c0 -5 -4 -10 -10 -10 -5 0 -10 5 -10 10 0 6 5 10 10 10 6 0 10 -4 10 -10z
m-40 -70 c0 -5 -4 -10 -9 -10 -6 0 -13 5 -16 10 -3 6 1 10 9 10 9 0 16 -4 16
-10z m90 -45 c0 -11 -11 -15 -42 -14 -43 1 -43 1 -10 9 18 4 36 10 39 14 10 9
13 7 13 -9z"/>
<path d="M2191 1224 c0 -11 3 -14 6 -6 3 7 2 16 -1 19 -3 4 -6 -2 -5 -13z"/>
<path d="M1025 2480 c-280 -64 -504 -252 -610 -512 -92 -226 -73 -515 48 -728
177 -313 518 -475 880 -419 433 67 752 491 697 926 -15 121 -63 259 -125 358
-183 295 -555 451 -890 375z m340 -21 c245 -52 459 -217 564 -434 74 -151 86
-204 86 -375 0 -124 -3 -156 -23 -220 -96 -307 -349 -535 -647 -584 -38 -6
-37 -5 17 17 124 53 213 164 242 304 29 134 -19 280 -122 374 -78 71 -144 98
-272 111 -113 11 -178 32 -245 78 -137 95 -204 275 -161 436 40 153 166 272
318 304 49 10 168 4 243 -11z m-193 -972 c3 -6 4 -26 1 -45 l-6 -34 31 16 c38
19 102 21 102 3 0 -7 -21 -19 -46 -26 -41 -12 -45 -16 -30 -26 23 -18 12 -58
-26 -90 -35 -30 -63 -34 -50 -7 13 25 14 92 3 92 -6 0 -18 -11 -27 -25 -9 -14
-20 -25 -24 -25 -4 0 -6 30 -4 68 1 37 3 80 3 95 1 27 3 28 34 22 17 -4 35
-12 39 -18z m-224 -53 c12 -8 22 -24 22 -36 l0 -21 23 21 c15 14 36 22 60 22
74 0 21 -49 -73 -67 -50 -9 -55 -17 -16 -22 42 -6 63 -28 53 -55 -5 -13 -11
-14 -24 -7 -35 18 -83 74 -83 95 -1 11 -7 38 -14 59 -13 37 -13 37 8 31 11 -3
31 -12 44 -20z m196 -226 c-3 -13 -7 -23 -8 -24 0 0 -24 -6 -52 -12 -55 -14
-79 -9 -95 19 -8 16 -6 19 18 20 15 0 37 4 48 9 11 5 37 9 58 9 35 1 38 -1 31
-21z m145 -89 c23 -8 31 -17 31 -35 l0 -24 -99 6 c-90 6 -107 4 -188 -21 -88
-27 -91 -27 -117 -10 -22 15 -25 20 -14 30 18 17 148 47 243 55 44 4 87 8 96
9 9 0 30 -4 48 -10z"/>
<path d="M1160 2244 c-47 -13 -95 -24 -107 -24 -13 0 -23 -4 -23 -9 0 -12 60
-36 90 -36 39 0 39 -36 0 -53 -16 -8 -30 -19 -30 -26 0 -18 21 -36 43 -36 16
0 18 -5 12 -32 -11 -47 -24 -64 -83 -109 -30 -23 -52 -42 -50 -45 5 -4 83 19
120 36 16 8 37 31 49 57 l22 45 38 -61 c21 -33 49 -67 63 -76 46 -30 130 -56
198 -62 59 -5 68 -4 68 11 0 9 -5 16 -12 16 -25 0 -185 64 -214 86 -30 22 -94
109 -107 146 -5 13 4 22 38 37 74 33 47 70 -29 41 -23 -8 -26 -7 -26 13 0 13
-5 28 -11 34 -11 11 42 26 121 35 14 2 26 10 28 21 3 15 -4 17 -55 16 -32 -1
-96 -12 -143 -25z"/>
<path d="M7828 2380 c-17 -16 -36 -30 -42 -30 -6 0 -36 -12 -66 -27 -42 -19
-69 -25 -111 -24 -40 1 -60 -3 -69 -14 -7 -8 -27 -15 -44 -15 -33 0 -67 -26
-83 -65 -19 -43 -47 -81 -77 -100 -44 -29 -56 -62 -65 -173 -9 -111 -9 -112
-120 -231 -64 -68 -70 -72 -80 -54 -6 11 -9 30 -6 41 2 11 -5 53 -16 94 -10
40 -19 95 -19 121 0 160 -99 233 -198 146 -18 -16 -37 -29 -42 -29 -6 0 -19
-9 -31 -21 -11 -11 -23 -18 -27 -15 -3 4 -6 57 -7 119 -1 68 -7 121 -14 135
-25 47 -110 62 -151 26 -8 -7 -28 -16 -43 -20 -36 -9 -67 -57 -67 -106 0 -21
-9 -52 -20 -70 -11 -18 -20 -41 -20 -51 0 -9 -12 -27 -26 -40 -14 -12 -39 -47
-55 -77 -17 -30 -40 -70 -53 -88 l-24 -32 -19 33 c-35 58 -139 171 -182 197
-35 21 -44 34 -60 85 -44 138 -66 165 -134 165 -27 0 -45 -7 -62 -25 -14 -13
-25 -28 -25 -33 0 -24 -63 -33 -284 -37 -243 -5 -272 -8 -323 -32 -54 -25 -69
-108 -27 -154 9 -10 23 -33 32 -51 24 -46 72 -69 120 -56 51 13 55 13 159 -18
l92 -28 -15 -27 c-8 -16 -14 -38 -14 -50 0 -12 -14 -37 -30 -56 -37 -42 -80
-125 -80 -155 0 -13 -14 -43 -30 -67 -17 -24 -30 -54 -30 -67 0 -13 -13 -38
-29 -56 -16 -18 -36 -58 -45 -88 -15 -52 -36 -108 -93 -259 -18 -46 -23 -75
-19 -101 5 -32 2 -38 -17 -47 -12 -6 -45 -31 -73 -57 -29 -25 -55 -46 -59 -46
-3 0 -34 -20 -68 -44 -34 -24 -98 -61 -142 -81 -100 -45 -125 -68 -125 -112 0
-61 34 -102 83 -103 39 0 132 27 188 56 26 13 55 21 67 17 12 -3 45 6 76 20
l55 25 6 -28 c9 -41 47 -72 89 -72 48 0 78 21 100 71 11 22 27 43 36 46 10 3
45 36 79 73 34 37 70 76 80 87 58 63 217 187 282 221 30 14 74 44 99 65 44 37
48 38 79 26 30 -11 32 -15 25 -42 -4 -16 -8 -48 -10 -70 -1 -22 -12 -86 -25
-141 -20 -89 -21 -105 -9 -134 18 -44 68 -65 117 -49 29 9 40 22 63 70 15 32
41 74 59 94 17 20 31 41 31 48 0 7 12 27 27 44 15 17 42 64 59 104 25 56 38
75 57 80 23 6 25 4 31 -40 3 -26 12 -56 20 -66 7 -11 16 -40 20 -65 4 -24 12
-51 19 -59 8 -9 12 -54 12 -127 0 -108 1 -115 25 -138 14 -13 34 -25 45 -26
74 -7 101 15 120 98 8 35 22 76 30 93 9 16 20 52 25 81 8 39 19 59 45 83 19
18 39 45 45 60 9 22 14 26 33 20 12 -5 39 -8 60 -7 51 1 95 1 140 -1 36 -1 37
-2 37 -37 0 -20 -9 -72 -20 -115 -30 -117 -27 -157 12 -190 26 -22 39 -26 66
-21 52 8 78 40 112 135 17 47 38 95 46 106 14 18 16 18 27 4 7 -9 38 -28 70
-44 66 -31 95 -30 192 4 99 36 170 134 146 203 -9 26 -8 35 6 51 12 12 18 35
18 64 0 37 -5 49 -28 69 -15 13 -39 24 -53 24 -25 0 -32 14 -14 25 20 13 58
82 74 135 9 29 20 58 25 64 12 15 30 75 35 114 4 39 -2 34 67 55 58 18 69 27
187 166 20 24 56 63 79 88 58 63 73 100 80 196 6 90 -8 152 -51 231 -23 43
-92 92 -186 131 -79 33 -112 32 -152 -5z m135 -86 c104 -53 125 -71 138 -116
7 -24 16 -47 21 -52 9 -11 9 -117 -1 -158 -3 -15 -27 -51 -52 -80 -26 -29 -79
-90 -119 -136 -73 -84 -99 -102 -149 -102 -44 0 -91 -69 -91 -133 0 -20 -12
-52 -30 -80 -16 -26 -30 -59 -30 -72 0 -28 -19 -75 -31 -75 -4 0 -11 -9 -14
-20 -3 -11 -15 -20 -25 -20 -14 0 -22 -12 -32 -46 -12 -43 -13 -32 -13 133 0
145 3 183 15 198 11 13 15 42 15 98 0 68 3 81 19 91 10 6 26 19 35 29 8 9 21
17 28 17 6 0 17 8 22 18 9 14 10 15 11 1 0 -24 40 -16 56 12 10 18 13 20 14 7
0 -12 5 -15 18 -11 27 10 72 45 67 53 -2 4 16 22 40 40 50 38 60 56 18 34 -16
-7 -37 -14 -48 -13 -14 0 -6 7 23 22 46 23 55 49 22 67 -19 10 -18 12 13 58
18 26 38 52 46 58 11 9 7 12 -18 17 -40 8 -106 -20 -159 -67 -20 -18 -52 -41
-70 -52 -18 -10 -44 -35 -57 -56 -15 -23 -33 -38 -45 -38 -11 0 -20 -5 -20
-11 0 -6 -9 -22 -20 -37 -15 -18 -19 -35 -16 -63 3 -21 2 -39 -2 -41 -4 -2
-22 -48 -41 -103 -18 -55 -53 -140 -77 -190 -31 -64 -45 -107 -49 -150 -5 -66
-52 -230 -83 -291 -10 -22 -25 -67 -32 -101 -7 -35 -17 -60 -21 -57 -5 3 -7 9
-4 14 3 5 1 11 -4 14 -4 3 -11 -14 -14 -39 -8 -56 -70 -216 -75 -193 -2 10 6
52 18 94 14 52 22 117 25 198 2 67 10 154 18 194 9 46 11 72 5 72 -10 0 -7 38
8 88 6 20 1 18 -35 -14 -23 -21 -60 -62 -82 -91 -23 -29 -48 -53 -56 -53 -11
0 -14 -7 -10 -22 3 -13 8 -48 11 -78 6 -52 5 -54 -8 -26 -8 18 -15 24 -18 16
-2 -8 -11 -11 -21 -7 -10 4 -14 12 -11 22 4 9 13 14 21 11 11 -5 13 -1 7 17
-3 12 -10 29 -15 37 -7 13 -8 12 -9 -2 0 -9 -5 -20 -12 -24 -8 -5 -9 4 -5 32
l6 39 -24 -47 c-23 -44 -45 -69 -45 -51 0 4 9 37 21 73 20 65 19 112 -3 107
-6 -1 -15 14 -20 33 -16 65 -20 66 -34 10 -8 -30 -21 -61 -28 -70 -7 -8 -11
-21 -9 -27 3 -7 -3 -13 -12 -13 -15 0 -17 -7 -12 -47 6 -53 -15 -120 -45 -141
-10 -7 -18 -19 -18 -26 0 -7 -7 -21 -15 -32 -11 -15 -16 -16 -23 -6 -12 17
-72 -117 -72 -159 0 -27 -2 -30 -15 -19 -13 11 -15 8 -15 -18 0 -35 -20 -133
-30 -145 -4 -4 -6 37 -6 91 1 70 -4 109 -16 137 -9 22 -20 61 -23 88 -3 26
-10 45 -15 42 -13 -8 -22 31 -20 88 4 86 5 83 -47 81 -27 -1 -64 -7 -83 -13
-19 -6 -49 -11 -66 -11 -34 0 -44 -13 -44 -60 0 -34 -43 -131 -70 -155 -10 -9
-24 -33 -31 -52 -8 -26 -14 -31 -24 -23 -10 8 -20 -7 -45 -70 -18 -45 -35 -79
-37 -76 -2 2 7 52 21 110 14 58 23 112 20 120 -3 9 -1 31 6 51 6 20 13 58 14
85 3 46 1 50 -27 60 -17 5 -41 10 -55 10 -21 0 -22 2 -12 15 11 13 6 15 -35
15 -43 0 -55 -6 -114 -54 -36 -29 -93 -68 -126 -85 -60 -31 -136 -89 -210
-159 -22 -21 -52 -44 -66 -51 -14 -7 -34 -30 -43 -52 -10 -21 -22 -39 -27 -39
-5 0 -21 -14 -36 -30 -18 -20 -29 -27 -34 -19 -7 12 -46 -42 -71 -97 -6 -13
-15 -24 -19 -24 -4 0 4 33 19 74 14 41 24 77 21 80 -10 11 -86 -16 -171 -60
-49 -25 -88 -41 -88 -36 0 6 7 12 15 16 8 3 15 10 15 16 0 6 -42 -11 -92 -36
-87 -44 -187 -79 -196 -69 -3 3 35 23 84 45 49 23 112 59 141 81 29 21 56 39
61 39 5 0 31 19 57 43 26 23 80 60 119 82 75 43 124 98 106 120 -7 9 -7 21 0
39 8 21 7 31 -5 43 -14 13 -17 12 -34 -9 -26 -31 -36 -18 -17 21 9 16 16 37
16 46 0 9 8 33 19 55 10 21 26 68 36 105 10 37 25 69 32 72 16 6 53 75 53 99
0 9 11 29 24 44 13 16 26 47 30 70 8 54 26 87 76 145 27 31 40 56 40 75 0 16
9 44 19 62 11 18 22 49 26 69 l7 36 -54 16 c-29 9 -84 24 -123 34 -57 15 -71
22 -73 40 -2 16 -12 22 -48 28 -51 7 -59 24 -11 26 27 1 24 3 -20 13 -28 6
-54 14 -58 17 -8 9 384 22 420 14 17 -3 59 -14 94 -23 50 -12 66 -13 69 -4 3
10 7 10 18 1 12 -9 14 -4 14 30 0 53 15 46 25 -11 5 -24 9 -45 9 -48 5 -18 28
-42 77 -78 113 -82 209 -222 210 -304 1 -66 -17 -168 -41 -228 -22 -55 -67
-116 -154 -209 l-51 -53 40 7 c22 4 47 13 55 20 8 7 27 17 43 20 15 4 27 11
27 15 0 5 15 12 33 15 39 9 47 20 47 63 0 18 11 57 24 85 54 115 79 174 86
204 7 30 6 32 -11 22 -23 -12 -24 -7 -3 33 9 17 22 51 30 77 7 26 29 62 48 81
19 19 32 38 30 42 -7 12 24 66 44 77 10 5 26 29 36 53 32 79 42 93 63 96 12 2
25 12 28 23 8 24 22 25 28 2 4 -15 5 -14 6 3 0 11 8 29 16 40 15 18 15 15 10
-31 -3 -27 0 -72 6 -100 14 -59 19 -424 6 -442 -5 -8 -5 -36 1 -70 5 -32 10
-96 10 -142 0 -61 4 -88 15 -99 14 -13 16 -10 20 29 3 24 5 53 5 64 -1 11 6
54 15 95 8 41 18 126 22 189 7 113 7 114 46 163 41 52 45 63 29 73 -16 10 -12
35 5 35 9 0 18 -7 21 -15 8 -21 32 -19 46 5 7 11 18 20 24 20 7 0 15 10 19 23
6 16 9 5 15 -45 5 -37 15 -91 24 -120 8 -30 13 -64 9 -76 -3 -13 2 -40 12 -62
10 -21 15 -46 11 -55 -3 -9 1 -30 10 -46 8 -17 19 -49 23 -72 l7 -42 23 43
c12 24 70 96 129 160 156 170 162 180 172 301 l9 102 52 50 c41 40 57 49 75
45 23 -6 50 8 139 72 82 58 243 118 290 106 33 -8 32 2 -2 20 -48 26 -15 17
40 -10z m-373 -29 c0 -8 -4 -15 -9 -15 -13 0 -22 16 -14 24 11 11 23 6 23 -9z
m-975 -15 c-3 -5 -10 -10 -16 -10 -5 0 -9 5 -9 10 0 6 7 10 16 10 8 0 12 -4 9
-10z m875 -24 c0 -2 -8 -10 -17 -17 -16 -13 -17 -12 -4 4 13 16 21 21 21 13z
m120 -20 c0 -3 -4 -8 -10 -11 -5 -3 -10 -1 -10 4 0 6 5 11 10 11 6 0 10 -2 10
-4z m-1084 -23 c-2 -10 -13 -20 -27 -22 -24 -3 -24 -3 -5 18 23 26 35 27 32 4z
m104 7 c0 -5 -5 -10 -11 -10 -5 0 -7 5 -4 10 3 6 8 10 11 10 2 0 4 -4 4 -10z
m900 -24 c0 -21 -21 -31 -30 -15 -5 7 -6 17 -4 21 9 14 34 9 34 -6z m-1660 -6
c0 -5 -4 -10 -10 -10 -5 0 -10 5 -10 10 0 6 5 10 10 10 6 0 10 -4 10 -10z
m700 -15 c0 -8 -7 -15 -15 -15 -8 0 -15 7 -15 15 0 8 7 15 15 15 8 0 15 -7 15
-15z m-752 -58 c2 -10 -3 -17 -11 -17 -16 0 -30 24 -19 34 10 10 27 1 30 -17z
m-598 -37 c0 -5 -4 -10 -10 -10 -5 0 -10 5 -10 10 0 6 5 10 10 10 6 0 10 -4
10 -10z m1705 -60 c3 -5 -1 -10 -10 -10 -9 0 -13 5 -10 10 3 6 8 10 10 10 2 0
7 -4 10 -10z m-1637 -12 c-7 -19 -38 -22 -38 -4 0 10 9 16 21 16 12 0 19 -5
17 -12z m-38 -48 c0 -23 -10 -26 -28 -8 -18 18 -15 28 8 28 13 0 20 -7 20 -20z
m1610 -6 c0 -14 -21 -19 -33 -7 -9 9 13 34 24 27 5 -3 9 -12 9 -20z m30 22 c0
-3 -4 -8 -10 -11 -5 -3 -10 -1 -10 4 0 6 5 11 10 11 6 0 10 -2 10 -4z m725
-125 c-9 -16 -25 -3 -18 15 4 10 9 12 15 6 6 -6 7 -15 3 -21z m75 -3 c0 -5 -9
-4 -20 2 -11 6 -18 15 -14 21 6 11 34 -7 34 -23z m32 -13 c0 -5 -5 -11 -11
-13 -6 -2 -11 4 -11 13 0 9 5 15 11 13 6 -2 11 -8 11 -13z m8 -665 c24 -24 25
-36 6 -43 -15 -6 -39 16 -49 46 -9 24 18 22 43 -3z m-83 4 c-3 -3 -12 -4 -19
-1 -8 3 -5 6 6 6 11 1 17 -2 13 -5z m-45 -39 c0 -5 -5 -11 -11 -13 -6 -2 -11
4 -11 13 0 9 5 15 11 13 6 -2 11 -8 11 -13z m-25 -54 c4 1 21 1 36 0 28 -1 29
-3 22 -40 -5 -29 -2 -42 10 -55 20 -20 9 -38 -35 -56 -32 -13 -38 -25 -17 -33
6 -2 -13 -2 -43 1 -30 2 -62 11 -71 18 -8 8 -20 14 -25 14 -5 0 -10 19 -12 43
-1 23 -9 47 -17 53 -30 23 -12 43 60 69 23 9 36 8 57 -2 15 -7 31 -13 35 -12z
m-647 -25 c0 -11 -19 -15 -25 -6 -3 5 1 10 9 10 9 0 16 -2 16 -4z m-1670 -106
c0 -5 -4 -10 -10 -10 -5 0 -10 5 -10 10 0 6 5 10 10 10 6 0 10 -4 10 -10z
m2135 -120 c6 -20 5 -21 -14 -11 -30 17 -51 53 -45 78 6 21 7 21 29 -11 13
-19 26 -44 30 -56z m105 45 c0 -8 -4 -15 -10 -15 -5 0 -10 7 -10 15 0 8 5 15
10 15 6 0 10 -7 10 -15z"/>
<path d="M5852 1760 c-30 -38 -72 -129 -72 -158 0 -13 -11 -33 -23 -45 -14
-13 -33 -53 -46 -97 -12 -41 -38 -107 -57 -145 -19 -39 -34 -76 -34 -83 0 -7
-9 -30 -20 -52 -18 -36 -28 -120 -14 -120 16 0 214 175 214 190 0 3 45 51 101
108 106 108 129 146 129 212 0 58 -20 98 -76 153 -68 67 -75 70 -102 37z m88
-192 c0 -38 -6 -47 -85 -127 l-86 -86 22 60 c12 33 30 71 40 84 11 13 24 42
29 65 6 22 16 54 22 70 l12 29 23 -27 c16 -19 23 -40 23 -68z"/>
<path d="M6458 1471 c-15 -16 -33 -51 -39 -77 -7 -27 -18 -61 -25 -76 -8 -15
-14 -32 -14 -38 0 -14 31 -13 70 4 l32 13 2 102 c1 55 2 101 2 101 -1 -1 -13
-14 -28 -29z"/>
<path d="M6643 1143 c-17 -6 -16 -66 1 -107 9 -21 12 -52 9 -82 -3 -27 -3 -46
1 -43 10 9 16 181 8 211 -4 14 -13 23 -19 21z"/>
<path d="M4518 2210 c-18 -11 -33 -53 -42 -120 -4 -25 -13 -58 -20 -75 -8 -16
-19 -61 -26 -100 -6 -38 -18 -106 -25 -150 -8 -44 -15 -105 -15 -135 l0 -55
-31 54 c-25 43 -30 61 -25 90 3 20 8 63 12 96 6 55 4 62 -20 89 -22 23 -33 27
-56 22 -16 -3 -32 -1 -35 4 -3 6 -21 10 -38 10 -24 0 -45 -12 -83 -48 l-52
-47 -5 73 c-7 94 -24 122 -76 122 -21 0 -44 -6 -50 -14 -7 -8 -22 -17 -35 -20
-27 -7 -36 -22 -47 -86 -15 -83 -21 -105 -40 -125 -10 -12 -24 -36 -31 -55 -6
-19 -19 -46 -29 -60 -23 -33 -53 -143 -54 -200 -1 -25 -11 -76 -23 -115 -19
-59 -29 -74 -64 -99 l-41 -30 6 100 c4 69 11 113 26 144 11 25 21 57 21 72 0
15 10 46 22 69 39 76 34 187 -14 284 -56 113 -129 127 -182 36 -6 -10 -19 -29
-28 -43 -14 -18 -16 -31 -9 -55 8 -27 6 -33 -19 -52 -32 -23 -43 -53 -59 -161
-7 -41 -21 -116 -33 -167 -11 -50 -18 -95 -15 -100 3 -5 0 -50 -8 -99 -8 -49
-15 -92 -15 -95 0 -4 -14 -9 -30 -13 -32 -6 -40 -19 -59 -98 -13 -56 -3 -90
32 -113 17 -11 23 -22 20 -38 -7 -36 32 -77 72 -77 19 0 37 5 40 10 3 6 19 10
35 10 15 0 72 15 126 34 55 19 99 34 100 33 1 -1 -2 -24 -6 -52 -10 -61 4 -96
42 -109 44 -15 73 5 92 62 9 27 26 58 36 67 11 10 20 26 20 35 0 18 16 35 54
57 25 14 79 37 85 35 15 -5 51 -125 51 -170 0 -52 12 -90 34 -104 18 -12 61
-9 81 6 23 17 45 108 52 216 3 53 10 81 23 95 9 11 31 48 47 82 l30 62 23 -24
c20 -22 23 -34 21 -99 -4 -117 23 -147 112 -125 59 15 97 36 97 53 0 6 7 22
16 34 l16 23 29 -38 c65 -82 50 -76 164 -71 l103 6 -5 -38 c-13 -97 122 -124
141 -29 3 18 12 40 20 48 27 31 66 116 66 145 0 15 7 51 16 80 28 89 34 112
34 132 0 10 6 26 13 35 16 22 84 55 128 63 48 8 89 41 89 70 0 13 -9 35 -20
48 -17 22 -30 26 -85 30 -41 2 -71 10 -81 19 -13 14 -11 21 20 67 34 51 35 55
29 125 -4 59 -11 81 -36 119 -40 60 -108 98 -185 105 -110 10 -195 -34 -276
-141 -28 -36 -51 -66 -53 -66 -3 0 -4 51 -6 256 -2 134 -4 154 -21 173 -20 22
-60 27 -88 11z m43 -197 c1 -76 3 -172 3 -213 1 -41 5 -78 9 -81 5 -4 -1 -71
-13 -150 -12 -79 -24 -191 -26 -247 -5 -128 -15 -168 -54 -211 -27 -29 -36
-33 -65 -28 -26 4 -37 2 -44 -11 -5 -9 -13 -13 -17 -9 -5 4 -2 17 5 29 9 15
10 23 2 28 -7 3 -9 14 -5 23 4 10 -7 32 -29 59 -19 24 -52 78 -72 120 -34 71
-55 90 -55 52 0 -8 -10 -33 -22 -55 -22 -38 -22 -41 -5 -54 10 -7 14 -16 9
-19 -5 -3 -13 -22 -16 -41 -4 -19 -11 -35 -15 -35 -5 0 -14 -14 -20 -31 -6
-17 -15 -28 -20 -25 -15 9 -33 -58 -34 -128 -1 -35 -4 -62 -7 -59 -3 3 -10
-26 -16 -64 -10 -57 -12 -61 -13 -28 -2 56 -31 160 -62 221 -15 29 -63 38
-103 20 -17 -8 -41 -17 -53 -21 -13 -3 -23 -11 -23 -16 0 -5 -8 -9 -17 -9 -20
0 -63 -60 -63 -86 0 -10 -6 -14 -14 -11 -10 4 -19 -12 -31 -55 -9 -33 -18 -58
-21 -56 -2 3 2 41 8 86 7 45 10 83 7 86 -5 4 -116 -17 -139 -27 -28 -12 -105
-35 -137 -41 -25 -4 -33 -2 -33 9 0 19 -19 30 -32 17 -22 -22 -35 -2 -28 39 4
22 3 39 -2 39 -5 0 -7 8 -3 19 4 14 -1 20 -20 25 -38 10 -30 26 10 19 31 -5
35 -3 35 15 0 11 5 24 11 28 6 3 8 19 5 38 -3 17 1 66 9 108 8 43 12 84 9 93
-3 8 3 52 14 97 11 46 26 115 32 153 17 104 20 115 30 115 5 0 25 16 44 35 20
19 40 35 46 35 5 0 10 7 10 15 0 8 6 15 13 15 9 0 12 10 9 33 -6 41 9 27 31
-31 26 -65 22 -151 -8 -208 -14 -26 -25 -62 -25 -80 0 -18 -6 -39 -13 -46 -18
-17 -27 -85 -33 -231 -5 -111 -4 -118 13 -114 10 3 34 8 54 11 21 4 42 13 49
21 7 8 21 15 31 15 11 0 19 4 19 10 0 5 11 12 25 16 20 5 25 12 25 39 0 18 13
69 29 114 16 44 25 81 20 81 -5 0 -9 5 -9 11 0 5 5 7 10 4 6 -3 10 3 10 15 0
14 -4 19 -12 14 -8 -5 -9 -2 -3 12 4 10 14 40 20 65 14 49 35 89 47 89 5 0 8
11 8 24 0 14 11 37 25 52 13 14 27 42 31 61 4 20 16 41 30 50 13 8 24 23 24
32 0 13 2 13 9 2 6 -10 11 -6 19 15 10 29 10 28 11 -12 1 -23 10 -70 21 -104
12 -38 20 -88 19 -124 -2 -113 21 -350 36 -365 5 -4 9 45 8 84 -1 11 5 52 12
90 8 39 17 99 21 135 5 54 12 72 40 104 19 22 34 46 34 53 0 8 4 12 9 8 5 -3
11 7 13 22 2 16 7 26 13 23 5 -3 8 -12 7 -21 -4 -24 28 -33 45 -12 12 16 13
14 9 -22 -13 -95 -10 -120 16 -165 32 -55 68 -144 68 -169 0 -10 10 -40 22
-67 l22 -49 7 55 c3 30 14 73 23 95 12 27 21 86 26 180 5 78 16 159 25 184 8
24 15 58 15 76 0 43 10 71 20 55 4 -6 10 18 14 55 7 70 17 125 22 125 1 0 4
-62 5 -137z m-594 1 c-3 -3 -12 -4 -19 -1 -8 3 -5 6 6 6 11 1 17 -2 13 -5z
m-449 -51 c-2 -10 -14 -19 -26 -21 -21 -3 -22 -1 -12 17 13 26 43 28 38 4z
m378 -20 c-10 -10 -19 5 -10 18 6 11 8 11 12 0 2 -7 1 -15 -2 -18z m44 -14 c0
-5 -4 -9 -10 -9 -5 0 -10 7 -10 16 0 8 5 12 10 9 6 -3 10 -10 10 -16z m240
-25 c0 -8 -4 -12 -10 -9 -5 3 -10 10 -10 16 0 5 5 9 10 9 6 0 10 -7 10 -16z
m134 -13 c18 -19 17 -19 -18 -9 -38 12 -48 28 -18 28 11 0 27 -9 36 -19z m716
-1 c60 -31 84 -71 77 -131 -4 -28 -2 -49 3 -49 6 0 10 -5 10 -11 0 -6 -8 -8
-19 -4 -31 10 -71 -5 -71 -26 0 -10 -4 -19 -10 -19 -5 0 -10 10 -10 22 0 35
-33 108 -49 108 -24 0 -110 -60 -146 -103 -19 -22 -40 -56 -46 -76 -6 -20 -25
-61 -42 -91 -28 -49 -31 -63 -30 -132 1 -42 7 -87 14 -100 7 -13 12 -53 12
-90 -1 -79 -6 -80 99 17 46 42 68 70 73 93 6 30 5 32 -20 32 -14 0 -43 9 -64
20 -30 15 -40 27 -45 53 -4 22 -15 38 -29 44 -17 8 1 12 88 19 61 5 125 8 143
6 19 -2 40 2 48 9 18 15 117 14 122 0 2 -6 29 -12 60 -12 32 -1 46 -4 32 -6
-31 -5 -71 -19 -127 -45 -57 -26 -79 -71 -98 -198 -3 -19 -12 -44 -20 -56 -8
-12 -13 -40 -12 -62 1 -26 -5 -48 -16 -60 -9 -10 -17 -23 -17 -29 0 -6 -5 -13
-12 -15 -6 -2 -19 -26 -28 -54 l-17 -49 1 75 c1 41 -3 92 -7 113 -7 32 -11 36
-23 27 -8 -7 -14 -16 -14 -21 0 -5 -14 -23 -32 -39 -30 -29 -36 -31 -104 -28
-40 1 -71 6 -68 10 3 4 -2 11 -11 14 -25 10 -63 85 -68 137 -3 26 -9 52 -12
57 -6 10 18 188 37 275 7 28 22 60 35 73 13 13 23 31 23 40 0 48 139 230 199
262 49 26 140 26 191 0z m-1530 -38 c0 -8 -6 -11 -12 -8 -7 3 -21 9 -30 12
-18 6 -23 16 -13 26 10 9 55 -16 55 -30z m621 -25 c-13 -13 -26 -3 -16 12 3 6
11 8 17 5 6 -4 6 -10 -1 -17z m39 -18 c0 -5 -7 -9 -15 -9 -15 0 -20 12 -9 23
8 8 24 -1 24 -14z m786 -146 c3 -16 9 -40 14 -55 13 -41 -22 -68 -89 -68 -50
0 -52 1 -46 23 12 37 44 85 73 106 36 27 41 26 48 -6z m144 -1 c0 -15 -11 -21
-27 -15 -12 5 -12 7 -1 14 17 11 28 11 28 1z m-72 -153 c-2 -6 -8 -10 -13 -10
-5 0 -11 4 -13 10 -2 6 4 11 13 11 9 0 15 -5 13 -11z m-278 -107 c0 -13 -12
-22 -22 -16 -10 6 -1 24 13 24 5 0 9 -4 9 -8z m-310 -362 c0 -5 -4 -10 -10
-10 -5 0 -10 5 -10 10 0 6 5 10 10 10 6 0 10 -4 10 -10z m-1170 -20 c0 -5 -8
-19 -17 -30 -13 -14 -20 -17 -30 -8 -15 12 -18 32 -3 23 6 -3 13 1 16 9 7 17
34 22 34 6z m66 -161 c3 -5 -8 -9 -25 -9 -28 0 -46 11 -35 22 7 7 53 -3 60
-13z"/>
<path d="M3900 1437 c-14 -22 -51 -149 -45 -155 2 -2 20 2 40 9 l36 13 -7 76
c-3 41 -7 76 -8 77 -1 1 -8 -8 -16 -20z"/>
<path d="M4051 1175 c0 -16 4 -37 9 -45 8 -12 10 -10 9 10 0 14 -4 34 -9 45
-7 17 -9 16 -9 -10z"/>
<path d="M3859 1164 l-24 -13 32 -7 c18 -3 31 -10 28 -14 -4 -6 45 -30 61 -30
2 0 4 18 4 39 0 39 0 40 -38 39 -21 0 -49 -6 -63 -14z"/>
<path d="M3528 1153 c-33 -5 -36 -19 -7 -28 22 -7 79 12 79 26 0 9 -22 10 -72
2z"/>
</g>
</svg>
