<?xml version="1.0" standalone="no"?>
<!DOCTYPE svg PUBLIC "-//W3C//DTD SVG 20010904//EN"
 "http://www.w3.org/TR/2001/REC-SVG-20010904/DTD/svg10.dtd">
<svg version="1.0" xmlns="http://www.w3.org/2000/svg"
 width="960.000000pt" height="310.000000pt" viewBox="0 0 960.000000 310.000000"
 preserveAspectRatio="xMidYMid meet">

<g transform="translate(0.000000,310.000000) scale(0.100000,-0.100000)"
fill="#000000" stroke="none">
<path d="M5103 2999 c-17 -5 -42 -22 -55 -38 -14 -16 -39 -31 -59 -35 -66 -12
-118 -99 -119 -195 -1 -22 -10 -47 -24 -64 l-23 -29 -22 30 c-25 36 -143 103
-220 126 -107 32 -254 14 -336 -40 -15 -10 -40 -17 -56 -16 -50 4 -204 -84
-265 -151 -66 -73 -83 -110 -95 -201 -6 -39 -19 -92 -29 -117 -11 -26 -27 -89
-36 -140 -14 -79 -14 -106 -4 -173 6 -43 17 -92 24 -110 8 -17 20 -59 28 -93
l15 -63 -35 0 c-46 0 -86 -25 -111 -70 -20 -37 -62 -199 -75 -291 -5 -30 -15
-54 -31 -69 -35 -33 -46 -74 -45 -181 0 -52 -1 -123 -1 -159 -3 -155 20 -232
95 -317 35 -40 100 -83 126 -83 5 0 27 -17 48 -38 58 -58 165 -86 327 -84 82
1 239 16 252 25 7 4 34 14 60 22 27 7 57 16 69 20 19 6 22 2 27 -33 12 -75 80
-129 145 -117 71 13 107 55 143 167 14 41 34 77 59 103 42 44 64 84 73 131 3
18 17 48 31 68 32 47 62 138 80 246 8 47 22 126 31 175 8 50 26 128 39 175 13
47 32 134 41 195 9 60 23 122 31 137 8 15 18 69 23 120 7 70 21 126 56 223
l46 130 -6 175 c-3 96 -8 207 -11 245 -2 39 -6 97 -8 130 -5 83 -22 168 -41
204 -28 56 -95 81 -162 60z m57 -159 c0 -11 -7 -20 -15 -20 -27 0 -18 30 13
39 1 1 2 -8 2 -19z m-160 -20 c0 -25 -4 -30 -25 -30 -29 0 -32 16 -8 42 23 26
33 22 33 -12z m56 -64 c7 -29 -1 -46 -21 -46 -19 0 -37 34 -29 54 10 25 43 19
50 -8z m120 -63 c1 -32 3 -94 7 -138 21 -317 21 -323 -11 -420 -17 -49 -39
-115 -50 -146 -12 -31 -22 -85 -23 -122 -2 -53 -7 -74 -26 -99 -17 -23 -23
-44 -22 -77 1 -57 -25 -219 -46 -286 -14 -43 -32 -127 -49 -227 -2 -14 -10
-36 -16 -48 -7 -12 -10 -33 -7 -47 7 -36 -26 -176 -49 -208 -44 -63 -53 -80
-59 -116 -8 -44 -35 -75 -35 -40 0 45 -17 16 -64 -110 -70 -184 -86 -186 -42
-4 36 150 48 229 37 258 -5 14 -6 41 -1 63 19 91 19 114 3 114 -11 0 -14 6 -9
25 4 15 13 72 21 129 8 56 19 125 25 152 5 27 9 78 8 114 0 36 2 103 6 150 4
47 8 142 11 213 3 120 2 127 -16 127 -14 0 -19 7 -19 28 0 38 9 46 31 26 17
-16 19 -15 28 7 5 13 17 42 26 64 18 42 22 162 6 178 -4 4 -11 -19 -14 -53 -6
-72 -28 -110 -62 -110 -14 0 -25 -3 -25 -7 0 -5 -5 -15 -10 -23 -8 -13 -11
-12 -24 5 -13 18 -14 17 -25 -20 -6 -22 -11 -45 -11 -51 0 -6 -6 -17 -14 -23
-12 -10 -15 -2 -18 46 -2 32 -1 62 4 68 13 15 9 35 -16 89 -13 28 -36 78 -50
110 l-26 59 -54 -6 c-103 -10 -211 -90 -245 -180 -19 -53 -23 -177 -6 -222 20
-53 60 -131 72 -138 7 -4 13 -20 13 -36 0 -21 13 -38 54 -74 51 -44 168 -212
224 -324 73 -143 101 -383 55 -468 -11 -22 -33 -50 -48 -63 -14 -13 -40 -53
-56 -90 -17 -37 -40 -78 -52 -90 -28 -30 -89 -62 -119 -62 -13 0 -32 -7 -42
-15 -13 -10 -43 -15 -86 -15 -37 0 -81 -5 -98 -11 -24 -8 -37 -7 -61 6 -18 9
-36 13 -42 10 -18 -12 -95 -7 -132 8 -20 9 -42 28 -51 45 -15 28 -66 56 -120
64 -31 5 -78 72 -87 125 -4 26 -11 63 -15 82 -6 31 -5 33 15 26 24 -7 24 -22
0 148 -10 74 -5 118 8 69 6 -24 23 -30 23 -9 1 6 9 -4 19 -23 l19 -34 -5 109
c-4 95 -1 126 22 230 29 130 33 141 45 128 5 -4 0 -53 -9 -108 -37 -201 -36
-217 20 -351 26 -61 38 -78 86 -114 31 -23 62 -44 70 -47 7 -3 13 -13 13 -22
0 -19 38 -41 72 -41 19 0 19 1 -3 19 -34 27 -16 38 28 17 47 -22 156 -31 209
-17 26 7 49 22 65 43 23 31 24 41 25 171 l0 138 -34 52 c-50 77 -102 137 -117
137 -7 0 -18 -15 -24 -32 -9 -27 -14 -30 -21 -18 -15 23 -30 -5 -30 -57 0 -24
-5 -43 -10 -43 -14 0 -17 13 -24 83 -4 37 -14 68 -28 88 -19 25 -20 33 -10 49
16 26 16 24 -17 62 -15 18 -38 62 -50 98 -12 36 -35 85 -52 110 -18 27 -28 52
-25 64 3 10 -6 44 -18 75 -13 31 -27 77 -30 102 -8 53 8 169 29 214 20 41 45
139 45 175 0 49 73 128 158 172 40 20 73 33 73 30 1 -4 1 -15 0 -24 -3 -25 5
-23 52 16 91 74 157 94 270 82 75 -8 136 -43 230 -128 71 -66 86 -93 88 -157
1 -27 5 -55 9 -62 10 -15 22 54 19 107 -3 46 -2 48 80 147 54 65 69 77 94 77
17 0 35 8 42 17 11 15 15 15 29 4 14 -12 16 -10 16 16 0 29 27 73 45 73 6 0
10 -26 11 -57z m-687 -544 c6 -18 11 -48 11 -68 0 -20 7 -84 14 -144 17 -123
38 -167 94 -196 l36 -18 -3 -64 c-1 -35 -4 -65 -6 -67 -1 -2 -28 37 -59 87
-31 49 -67 96 -80 104 -21 14 -58 71 -108 167 -12 22 -18 56 -18 95 0 54 3 64
28 87 27 25 61 47 74 48 3 0 11 -14 17 -31z m191 -254 c0 -8 -7 -15 -15 -15
-16 0 -20 12 -8 23 11 12 23 8 23 -8z m-47 -83 c28 -4 38 -34 17 -47 -14 -9
-56 19 -71 47 -10 19 -9 20 7 13 11 -4 31 -10 47 -13z m-665 -449 c12 -23 22
-56 22 -72 0 -43 46 -184 71 -215 l20 -26 -33 7 c-57 11 -105 48 -128 100 -27
59 -28 91 -4 218 15 86 19 95 24 65 4 -19 16 -54 28 -77z m308 -55 c6 -21 -12
-41 -31 -35 -12 4 -19 33 -11 52 7 19 34 8 42 -17z m-96 -113 c0 -8 -7 -15
-15 -15 -8 0 -15 7 -15 15 0 8 7 15 15 15 8 0 15 -7 15 -15z m-63 -90 c12 -4
14 -8 5 -17 -9 -9 -17 -7 -35 10 -23 24 -23 24 30 7z m47 -75 c19 0 46 4 60
10 21 7 26 6 26 -5 0 -22 -119 -21 -146 1 -18 15 -18 15 3 5 12 -6 37 -11 57
-11z"/>
<path d="M3710 1010 c0 -25 38 -100 51 -100 8 0 8 4 1 13 -6 7 -20 33 -31 58
-11 24 -21 37 -21 29z"/>
<path d="M2170 2773 c-58 -8 -216 -46 -225 -53 -5 -4 -28 -13 -50 -20 -51 -16
-174 -82 -245 -132 -186 -132 -335 -321 -418 -533 -42 -106 -58 -174 -73 -297
-34 -299 47 -601 226 -840 179 -238 444 -403 729 -453 113 -19 319 -19 432 0
286 50 557 221 737 464 156 211 239 493 223 757 -33 553 -432 1005 -970 1099
-80 14 -298 19 -366 8z m310 -33 c321 -39 633 -238 812 -516 51 -80 108 -203
140 -306 32 -102 32 -104 32 -313 0 -209 0 -210 -33 -315 -64 -208 -151 -353
-295 -495 -152 -149 -324 -249 -521 -299 -114 -30 -163 -34 -90 -7 70 25 101
43 168 96 107 85 175 203 202 352 19 102 11 184 -26 291 -44 127 -156 252
-281 314 -86 42 -140 55 -263 63 -49 3 -113 11 -140 19 -180 47 -336 192 -396
367 -27 80 -36 217 -20 301 16 81 81 211 133 267 88 92 204 159 312 181 60 12
169 11 266 0z m-223 -1348 c35 -5 51 -38 33 -72 -5 -10 -10 -28 -10 -40 0 -20
1 -20 47 5 68 35 143 33 143 -5 0 -12 -10 -19 -37 -23 -21 -3 -51 -10 -68 -17
-30 -12 -30 -12 -7 -23 37 -17 24 -79 -29 -128 -35 -33 -86 -41 -74 -11 5 9
10 41 12 70 4 45 2 52 -14 52 -10 0 -26 -14 -35 -30 -22 -38 -51 -41 -42 -4 6
23 9 69 13 203 1 37 3 42 19 36 9 -5 31 -10 49 -13z m-290 -87 c24 -10 35 -22
39 -45 8 -37 11 -37 45 -4 21 20 38 27 69 27 22 0 43 -3 47 -7 10 -10 -15 -56
-31 -56 -7 0 -33 -9 -57 -20 -24 -11 -58 -20 -74 -20 -17 0 -36 -5 -42 -11
-24 -24 -40 -2 -47 62 -3 37 -13 70 -24 82 -17 19 -16 20 12 13 17 -4 45 -14
63 -21z m95 -172 c21 -19 24 -61 4 -69 -8 -3 -23 -1 -34 5 -22 12 -82 66 -82
75 0 14 94 5 112 -11z m185 -124 c5 -5 8 -21 6 -34 -4 -19 -16 -26 -69 -39
-82 -21 -96 -20 -128 5 -30 24 -34 39 -8 39 9 0 44 9 77 20 68 22 106 25 122
9z m198 -148 c46 -18 50 -21 50 -52 0 -39 -1 -39 -136 -21 -94 12 -162 2 -291
-42 l-97 -33 -36 25 c-19 14 -35 28 -35 32 0 29 249 90 371 90 46 0 91 5 99
10 20 13 17 13 75 -9z"/>
<path d="M2395 2461 c-27 -11 -221 -59 -267 -66 -21 -3 -38 -9 -38 -13 0 -5
21 -18 46 -30 33 -16 55 -21 80 -16 27 5 34 3 34 -9 0 -8 3 -22 6 -31 4 -10
-1 -18 -12 -23 -11 -3 -31 -15 -47 -25 -27 -19 -27 -20 -10 -49 12 -21 25 -29
45 -29 25 0 26 -2 21 -37 -8 -56 -42 -101 -121 -163 -39 -30 -67 -56 -62 -58
17 -6 147 38 179 60 34 24 53 51 72 103 l10 29 51 -79 c28 -44 59 -88 70 -99
55 -52 301 -120 371 -102 24 6 26 9 16 27 -6 11 -13 18 -16 16 -6 -7 -181 55
-249 89 -65 31 -166 152 -191 229 -10 30 -9 30 51 55 45 19 61 31 61 45 0 26
-62 32 -103 11 -34 -18 -42 -13 -42 24 0 15 -7 34 -16 41 -19 16 -9 19 135 44
46 8 86 16 88 19 3 2 0 14 -7 25 -9 18 -20 21 -73 20 -34 0 -71 -4 -82 -8z"/>
<path d="M6980 2391 c-40 -11 -64 -58 -79 -156 -7 -50 -22 -104 -32 -122 -12
-19 -22 -59 -25 -100 -3 -37 -14 -95 -24 -128 -24 -80 -44 -233 -41 -325 l2
-75 -42 75 c-40 74 -41 76 -34 145 4 38 8 105 9 147 1 72 -1 80 -26 105 -21
21 -38 27 -75 29 -26 1 -61 6 -78 11 -40 13 -83 0 -120 -37 -16 -16 -44 -43
-62 -60 l-31 -30 -6 27 c-3 16 -5 51 -4 78 3 141 -66 208 -162 156 -19 -10
-49 -27 -67 -36 -37 -20 -65 -80 -57 -123 4 -18 0 -41 -10 -60 -9 -17 -16 -41
-16 -54 0 -12 -13 -36 -29 -53 -15 -16 -35 -50 -43 -75 -8 -25 -27 -62 -42
-84 -14 -21 -30 -57 -36 -80 -5 -22 -17 -65 -27 -94 -9 -28 -17 -82 -17 -120
-1 -45 -11 -97 -31 -158 -29 -90 -31 -93 -85 -127 l-55 -34 2 106 c3 117 15
181 44 238 10 20 19 54 19 75 0 22 13 63 32 100 55 109 50 255 -16 401 -34 76
-95 137 -135 137 -54 0 -110 -42 -111 -81 0 -9 -11 -24 -23 -32 -37 -24 -52
-71 -39 -115 11 -36 11 -38 -28 -72 -46 -41 -58 -68 -66 -153 -3 -34 -10 -70
-15 -79 -5 -9 -9 -34 -9 -56 0 -22 -14 -93 -30 -157 -19 -71 -29 -129 -25
-145 3 -15 -1 -68 -9 -116 -9 -49 -16 -105 -16 -125 0 -35 -2 -37 -39 -43 -49
-7 -81 -45 -81 -93 0 -19 -5 -43 -11 -54 -16 -30 -13 -93 5 -122 9 -14 29 -30
44 -36 24 -10 27 -17 27 -56 1 -79 75 -126 143 -91 17 9 41 16 54 16 12 0 40
6 63 14 22 8 67 22 100 31 33 10 80 26 103 37 24 11 46 17 49 14 3 -2 0 -35
-6 -72 -16 -103 14 -154 90 -156 46 -2 80 31 103 98 12 33 31 70 43 81 12 12
27 40 33 63 9 35 18 44 54 60 24 10 47 23 50 29 4 6 15 11 25 11 10 0 24 7 31
15 22 26 39 17 50 -27 5 -24 18 -56 27 -73 10 -19 19 -68 23 -133 6 -88 11
-106 30 -127 30 -32 79 -41 117 -21 34 17 48 48 58 121 4 27 13 62 21 77 9 17
14 56 14 100 -2 104 5 131 39 166 17 17 31 39 31 50 0 11 7 25 14 32 8 6 23
31 32 56 9 24 19 44 21 44 2 0 16 -14 31 -32 25 -30 27 -38 28 -139 2 -120 14
-156 59 -178 24 -11 37 -12 70 -2 22 7 57 16 78 20 46 10 84 44 92 82 4 16 15
34 25 39 15 8 24 2 51 -36 79 -106 64 -98 180 -99 57 0 123 3 147 8 l42 7 0
-61 c0 -54 3 -64 29 -90 23 -23 38 -29 71 -29 52 0 81 29 99 98 7 28 18 53 26
55 26 11 88 149 91 204 1 28 7 61 14 73 11 20 32 103 49 195 5 22 13 51 20 65
14 30 99 72 196 96 77 19 105 47 105 103 -1 67 -52 105 -127 96 -52 -7 -117
14 -139 44 -10 13 -9 20 10 41 13 14 36 46 51 73 22 39 26 54 20 85 -4 20 -8
67 -9 103 -1 61 -4 69 -44 122 -80 104 -189 151 -326 142 -127 -9 -211 -61
-316 -199 -36 -47 -67 -85 -70 -85 -6 -1 -10 101 -13 359 -2 211 -6 229 -57
255 -31 16 -33 16 -70 6z m32 -196 c-4 -50 -3 -135 1 -190 4 -55 7 -149 7
-209 -2 -84 1 -107 11 -101 15 10 8 -76 -23 -250 -11 -66 -22 -165 -23 -221
-2 -56 -9 -148 -15 -205 -12 -106 -26 -137 -86 -190 -20 -18 -94 -31 -94 -17
0 18 -28 6 -38 -17 -13 -28 -32 -34 -32 -10 0 8 0 17 0 20 0 3 3 5 7 4 8 -1
21 29 22 50 1 11 -2 11 -16 0 -15 -12 -16 -12 -11 6 3 11 9 27 12 35 4 9 -10
34 -37 65 -39 45 -127 197 -127 221 0 5 -11 22 -24 39 l-23 29 -8 -34 c-4 -19
-18 -53 -31 -76 -35 -59 -32 -84 9 -85 27 0 29 -1 11 -9 -14 -5 -25 -23 -32
-52 -6 -25 -20 -56 -31 -70 -11 -13 -23 -37 -26 -51 -7 -26 -25 -38 -25 -16 0
5 -4 8 -9 5 -19 -12 -44 -134 -44 -216 0 -47 -2 -79 -4 -72 -8 23 -25 12 -22
-15 4 -42 -12 -154 -21 -148 -4 2 -6 19 -4 36 6 48 -15 160 -35 194 -11 16
-22 49 -26 72 -3 23 -16 53 -29 67 -18 22 -30 26 -78 26 -35 0 -60 -5 -67 -14
-7 -8 -27 -17 -46 -20 -19 -4 -39 -16 -45 -26 -6 -11 -21 -20 -33 -20 -22 0
-77 -65 -77 -90 0 -6 -5 -21 -11 -32 -9 -16 -13 -18 -20 -7 -9 16 -8 18 -43
-91 -27 -85 -31 -65 -12 60 16 106 12 124 -23 115 -14 -4 -53 -11 -86 -16 -32
-6 -64 -14 -70 -19 -5 -4 -30 -14 -55 -21 -25 -7 -50 -16 -57 -21 -6 -5 -30
-9 -52 -10 -22 0 -46 -7 -52 -14 -15 -18 -29 -8 -29 21 0 32 -31 42 -49 16
-23 -35 -39 -5 -31 57 5 38 3 55 -7 64 -10 8 -10 14 -2 24 8 10 3 16 -25 28
-50 21 -46 37 7 30 l42 -6 24 57 c19 45 21 59 11 65 -10 6 -9 29 5 116 10 60
18 127 17 149 -1 22 12 95 28 163 17 67 29 126 26 130 -2 4 2 34 10 67 7 33
14 75 14 93 0 24 8 40 26 55 15 12 41 37 58 55 17 19 43 40 59 48 15 8 27 22
27 30 0 11 6 14 16 10 13 -5 15 1 13 34 -5 59 13 53 40 -15 20 -48 25 -78 25
-150 1 -82 -2 -95 -31 -150 -17 -33 -34 -81 -37 -107 -3 -26 -14 -60 -24 -75
-21 -30 -48 -215 -37 -246 4 -9 2 -48 -4 -88 -7 -39 -9 -86 -5 -105 l6 -34 52
6 c28 3 62 12 76 19 61 30 96 51 103 62 4 7 16 13 25 13 33 0 44 17 47 71 2
30 12 74 23 99 38 89 80 252 59 231 -21 -21 -27 -11 -13 23 7 18 17 53 21 77
4 24 22 64 39 89 17 25 31 50 32 55 3 32 19 65 39 83 13 12 29 40 35 64 18 66
34 93 58 96 14 2 22 10 22 22 0 10 5 22 10 25 6 3 10 -1 10 -10 0 -9 5 -13 10
-10 6 3 10 17 10 30 0 13 4 26 9 29 4 3 11 -27 13 -67 3 -43 12 -88 23 -108
17 -33 36 -237 36 -394 0 -33 7 -95 15 -139 7 -43 14 -104 15 -135 0 -48 2
-52 10 -31 6 14 12 61 14 105 2 44 9 103 15 130 6 28 16 84 20 125 21 173 21
173 62 215 21 22 41 52 45 68 4 22 10 26 25 21 18 -5 19 -2 16 33 -2 29 1 38
12 38 8 0 16 -9 16 -20 1 -11 2 -28 3 -38 1 -10 5 -16 10 -13 5 4 11 0 14 -6
2 -8 12 1 23 19 23 40 39 43 29 6 -5 -16 -11 -66 -15 -113 -6 -72 -5 -89 10
-111 38 -54 81 -152 105 -236 29 -99 55 -174 65 -186 4 -5 10 20 14 54 4 35
21 103 37 153 23 69 30 107 30 170 0 113 18 260 39 331 16 50 23 99 30 190 0
6 7 1 15 -9 14 -19 15 -18 15 10 0 51 34 244 42 236 4 -4 4 -48 0 -97z m-822
-89 c0 -9 -7 -12 -20 -9 -11 3 -17 9 -14 14 8 14 34 10 34 -5z m-630 -64 c0
-25 -18 -41 -41 -35 -25 7 -24 18 3 37 29 21 38 20 38 -2z m540 -7 c0 -24 -24
-44 -37 -32 -6 6 23 57 32 57 3 0 5 -11 5 -25z m110 15 c0 -5 -5 -10 -11 -10
-5 0 -7 5 -4 10 3 6 8 10 11 10 2 0 4 -4 4 -10z m-60 -55 c0 -8 -7 -15 -15
-15 -8 0 -15 7 -15 15 0 8 7 15 15 15 8 0 15 -7 15 -15z m-570 -10 c0 -8 -4
-15 -10 -15 -5 0 -10 7 -10 15 0 8 5 15 10 15 6 0 10 -7 10 -15z m910 -25 c0
-23 -13 -26 -29 -6 -9 11 -9 15 1 19 23 10 28 7 28 -13z m180 -22 c25 -27 22
-30 -21 -16 -19 6 -40 12 -46 14 -25 6 -12 24 17 24 17 0 37 -9 50 -22z m996
-3 c94 -47 138 -129 111 -208 -7 -22 -5 -32 8 -47 17 -19 17 -20 -1 -27 -10
-4 -19 -2 -22 5 -5 15 -39 16 -48 1 -3 -6 -15 -9 -25 -6 -15 4 -19 0 -19 -23
0 -25 -19 -55 -21 -33 -5 59 -13 92 -29 118 -18 29 -20 34 -20 55 0 49 -180
-63 -246 -152 -24 -33 -44 -64 -44 -69 0 -22 -44 -122 -64 -147 -27 -31 -61
-169 -47 -186 5 -6 8 -29 6 -51 -2 -22 3 -50 11 -62 20 -31 28 -86 25 -172
l-2 -73 58 45 c32 24 72 60 90 78 18 19 46 44 63 57 26 21 30 30 30 72 l0 49
-32 -5 c-42 -6 -143 52 -143 82 -1 10 -5 25 -9 33 -5 8 -4 16 4 21 8 5 0 12
-24 20 -21 7 -35 14 -32 17 5 5 64 10 191 16 33 2 75 7 92 11 18 4 38 4 45 0
18 -11 60 -5 79 12 28 25 182 14 172 -12 -4 -11 11 -13 79 -9 l83 5 -90 -26
c-49 -14 -97 -32 -106 -40 -8 -8 -21 -14 -27 -14 -36 0 -102 -106 -102 -165 0
-20 -6 -38 -12 -40 -8 -3 -14 -26 -14 -55 -1 -31 -10 -62 -24 -85 -16 -26 -21
-46 -17 -70 7 -41 -9 -104 -28 -111 -7 -3 -16 -20 -19 -37 -5 -25 -9 -29 -16
-17 -11 19 -11 19 -40 -70 -18 -54 -25 -68 -28 -50 -1 14 1 42 5 64 7 31 -6
170 -17 196 -1 3 -1 14 0 25 2 19 0 18 -24 -5 -15 -13 -24 -30 -22 -37 3 -7
-8 -23 -24 -35 -16 -11 -27 -25 -24 -30 11 -17 -53 -29 -144 -26 -51 1 -88 4
-82 6 6 2 -4 15 -22 28 -48 36 -86 99 -93 152 -3 26 -11 71 -17 99 -9 44 -8
75 10 185 11 73 24 154 27 180 3 26 10 50 16 53 5 4 9 19 9 35 0 20 8 35 24
45 13 9 33 40 45 73 44 119 176 295 260 347 52 33 61 35 141 35 72 0 94 -4
136 -25z m-2151 -26 c28 -6 33 -39 6 -39 -12 0 -21 5 -21 10 0 6 -11 10 -25
10 -28 0 -30 3 -14 32 10 19 13 20 23 6 6 -9 20 -17 31 -19z m995 -9 c0 -5 -5
-10 -11 -10 -5 0 -7 5 -4 10 3 6 8 10 11 10 2 0 4 -4 4 -10z m115 -9 c3 -5 1
-12 -5 -16 -5 -3 -10 1 -10 9 0 18 6 21 15 7z m-215 -36 c0 -19 -13 -25 -30
-15 -11 7 -11 11 -1 24 15 17 31 13 31 -9z m40 -9 c0 -2 3 -11 6 -20 4 -12 0
-16 -15 -16 -14 0 -21 6 -21 20 0 11 7 20 15 20 8 0 15 -2 15 -4z m1100 -209
c0 -13 7 -47 16 -77 l16 -53 -31 -31 c-29 -28 -37 -31 -106 -33 l-74 -3 14 40
c20 58 70 126 113 155 45 31 52 31 52 2z m206 -18 c10 -17 -12 -32 -37 -24
-22 7 -22 8 -4 21 23 17 32 17 41 3z m-66 -69 c0 -5 -4 -10 -10 -10 -5 0 -10
5 -10 10 0 6 5 10 10 10 6 0 10 -4 10 -10z m-42 -147 c-4 -22 -22 -20 -26 1
-2 10 3 16 13 16 10 0 15 -7 13 -17z m-385 -158 c1 -5 -6 -11 -15 -13 -11 -2
-18 3 -18 13 0 17 30 18 33 0z m77 -165 c0 -5 -4 -10 -10 -10 -5 0 -10 5 -10
10 0 6 5 10 10 10 6 0 10 -4 10 -10z m65 -310 c3 -5 1 -10 -4 -10 -6 0 -11 5
-11 10 0 6 2 10 4 10 3 0 8 -4 11 -10z m-575 -20 c0 -11 -7 -20 -15 -20 -8 0
-15 9 -15 20 0 11 7 20 15 20 8 0 15 -9 15 -20z m-1631 -24 c9 -11 8 -17 -7
-28 -10 -7 -21 -21 -25 -32 -7 -18 -8 -18 -27 -1 -25 23 -25 35 -1 35 10 0 21
9 24 20 6 23 20 26 36 6z m1541 -10 c0 -3 -4 -8 -10 -11 -5 -3 -10 -1 -10 4 0
6 5 11 10 11 6 0 10 -2 10 -4z m25 -66 c3 -5 -1 -10 -9 -10 -9 0 -16 5 -16 10
0 6 4 10 9 10 6 0 13 -4 16 -10z m-1495 -90 c0 -5 -7 -10 -15 -10 -8 0 -15 5
-15 10 0 6 7 10 15 10 8 0 15 -4 15 -10z m24 -61 c5 -4 -3 -11 -18 -15 -31 -7
-80 11 -71 26 7 11 74 3 89 -11z"/>
<path d="M6110 1327 c0 -9 -9 -24 -19 -34 -11 -10 -24 -43 -29 -73 -6 -30 -15
-68 -21 -83 -6 -16 -11 -33 -11 -38 0 -14 33 -11 74 6 34 14 36 18 31 53 -2
20 -7 68 -10 106 -5 63 -15 104 -15 63z"/>
<path d="M6306 972 c-9 -14 0 -80 14 -102 8 -12 10 -10 11 10 1 14 0 30 -1 35
-2 6 -6 23 -9 40 -5 20 -9 26 -15 17z"/>
<path d="M6135 941 c-11 -5 -24 -6 -28 -4 -5 3 -29 0 -53 -7 -37 -11 -42 -15
-32 -27 6 -8 22 -13 34 -10 30 5 55 -9 35 -22 -9 -6 1 -13 35 -25 26 -9 49
-16 51 -16 2 0 1 21 -1 48 -2 26 -4 53 -5 60 -1 14 -7 14 -36 3z"/>
<path d="M5536 894 c-3 -9 -6 -17 -6 -19 0 -1 17 -6 37 -10 37 -7 113 18 113
37 0 4 -31 8 -69 8 -54 0 -70 -4 -75 -16z"/>
</g>
</svg>
